<?xml version="1.0" standalone="no"?>
<!DOCTYPE svg PUBLIC "-//W3C//DTD SVG 20010904//EN"
 "http://www.w3.org/TR/2001/REC-SVG-20010904/DTD/svg10.dtd">
<svg version="1.0" xmlns="http://www.w3.org/2000/svg"
 width="609.000000pt" height="609.000000pt" viewBox="0 0 609.000000 609.000000"
 preserveAspectRatio="xMidYMid meet">
<metadata>
Created by potrace 1.11, written by Peter Selinger 2001-2013
</metadata>
<g transform="translate(0.000000,609.000000) scale(0.100000,-0.100000)"
fill="#000000" stroke="none">
<path d="M5058 6045 c-2 -1 -28 -5 -58 -9 -296 -32 -586 -240 -727 -521 -75
-148 -95 -252 -98 -495 -2 -223 -11 -270 -79 -415 -113 -239 -333 -407 -592
-454 -34 -6 -137 -12 -230 -12 -443 -3 -767 -136 -1059 -433 -109 -111 -188
-221 -258 -361 -67 -134 -127 -333 -127 -422 0 -28 -3 -34 -16 -29 -14 5 -15
4 -5 -8 17 -20 -11 -132 -30 -120 -5 3 -6 -1 -3 -9 3 -8 -13 -36 -34 -64 -104
-131 -261 -190 -420 -157 -62 13 -108 35 -227 108 -82 50 -145 69 -243 71 -88
3 -162 -14 -237 -52 -61 -32 -135 -98 -163 -146 -9 -15 -20 -27 -24 -27 -4 0
-8 -6 -8 -13 0 -8 -6 -27 -14 -43 -8 -16 -21 -51 -28 -79 -7 -27 -17 -53 -23
-57 -6 -5 -4 -8 5 -8 12 0 12 -2 1 -9 -9 -6 -10 -11 -2 -15 8 -5 8 -13 1 -27
-6 -10 -7 -19 -2 -19 4 0 9 -20 9 -45 1 -30 -2 -43 -9 -39 -7 4 -8 2 -4 -5 4
-6 11 -9 16 -6 9 5 25 -47 23 -78 0 -10 2 -15 5 -12 9 9 44 -57 38 -72 -3 -8
-2 -12 2 -9 5 3 36 -21 69 -54 167 -162 406 -186 599 -62 73 47 125 107 166
189 91 186 329 273 515 188 66 -30 125 -74 116 -88 -3 -5 -1 -7 5 -3 12 7 54
-42 46 -55 -3 -5 -2 -8 3 -7 4 2 9 -1 10 -6 1 -5 5 -12 10 -15 5 -3 21 -27 36
-52 48 -84 142 -203 223 -282 114 -111 222 -189 359 -256 245 -122 396 -152
740 -150 129 1 252 -3 281 -9 114 -24 243 -88 334 -164 40 -34 139 -149 140
-161 0 -5 9 -22 20 -37 17 -24 65 -136 69 -162 1 -4 3 -13 6 -20 2 -7 8 -42
14 -77 41 -251 289 -484 565 -532 82 -14 226 -7 310 16 188 50 358 190 449
370 51 103 71 190 71 315 -1 212 -75 386 -221 520 -98 90 -179 136 -283 159
-91 21 -211 86 -285 153 -101 93 -170 205 -205 338 -19 72 -21 207 -4 285 27
119 34 158 40 205 2 25 7 54 11 64 7 24 7 288 -1 313 -2 10 -8 41 -11 69 -6
49 -12 73 -58 229 -30 103 -29 301 2 405 58 189 171 341 331 446 112 72 239
113 395 127 67 6 194 50 275 94 442 240 626 779 421 1237 -124 274 -380 479
-677 541 -66 14 -257 28 -266 20z"/>
</g>
</svg>
